<?xml version="1.0" standalone="no"?>
<!DOCTYPE svg PUBLIC "-//W3C//DTD SVG 20010904//EN"
 "http://www.w3.org/TR/2001/REC-SVG-20010904/DTD/svg10.dtd">
<svg version="1.0" xmlns="http://www.w3.org/2000/svg"
 width="31.000000pt" height="32.000000pt" viewBox="0 0 31.000000 32.000000"
 preserveAspectRatio="xMidYMid meet">
<metadata>
Created by potrace 1.16, written by Peter Selinger 2001-2019
</metadata>
<g transform="translate(0.000000,32.000000) scale(0.100000,-0.100000)"
fill="#000000" stroke="none">
<path d="M63 303 c-23 -4 -23 -7 -23 -139 0 -74 3 -134 7 -134 4 0 31 12 59
27 l51 27 46 -27 c25 -15 51 -27 57 -27 7 0 10 42 8 138 l-3 137 -90 1 c-50 1
-100 -1 -112 -3z m187 -103 c0 -70 -3 -90 -14 -90 -7 0 -19 -6 -26 -14 -9 -11
-17 -12 -34 -4 -18 8 -32 5 -64 -11 -23 -12 -44 -21 -47 -21 -3 0 -5 52 -5
115 l0 115 95 0 95 0 0 -90z"/>
</g>
</svg>
